<svg xmlns="http://www.w3.org/2000/svg" xml:space="preserve" width="950" height="959.554" viewBox="0 0 251.354 253.882"><path d="M137.567 0C91 0 59.139 14.936 34.426 40.467 13.914 61.656 0 93.968 0 126.941c0 32.973 13.914 65.285 34.426 86.475 24.713 25.531 56.575 40.466 103.14 40.466h113.788v-94.043H152.2c-12.291 0-26.007-.165-35.67-7.14-7.052-5.09-13.444-14.143-13.444-25.758 0-11.614 6.392-20.667 13.444-25.758 9.663-6.975 23.379-7.139 35.67-7.139h99.154V.001z" paint-order="stroke fill markers"/><path fill="#fff" d="M268.114 89.2h-14.951c-5.318 1.846-7.567 5.439-8.386 8.694-.768 3.054.294 5.542 1.099 6.802 1.139 1.784 2.728 3.422 4.772 3.873 4.79 1.058 9.076-2.356 12.928-3.97 1.899-.795 3.69-.84 4.567.535.904 1.416.566 3.573-1.558 4.928-2.345 1.497-4.955 1.1-6.078-.477l-8.54 5.452c4.403 5.964 11.622 4.055 17.343.403 3.9-2.488 6.474-5.293 7.753-8.4 1.11-2.695 1.17-5.73-.738-8.72-1.906-2.985-4.285-3.586-6.982-3.466-4.741.211-7.294 2.43-10.72 4.078-1.855.892-4.313 1.174-5.263-.315-.506-.792-.862-2.947 1.814-4.655 2.903-1.853 5.02.294 5.02.294zm-39.789 15.452c-3.493 2.23-4.6 5.702-4.762 9l-2.27-3.415-8.966 5.722 15.853 24.837 9.34-5.963-8.047-12.607c-2.116-3.315-2.939-6.054.2-7.933 3.141-1.881 5.182 1.224 6.666 3.55l8.047 12.607 9.22-5.884-9.068-14.619c-1.291-2.082-2.55-3.767-3.723-4.879-3.775-3.58-8.946-2.678-12.49-.416zm-26.584 2.344-9.22 5.884 4.666 7.308 9.218-5.884zm7.151 11.203-9.22 5.884 15.75 24.674 9.218-5.885zm-16.005 11.47c-2.394-.07-4.672.73-6.389 1.913-3.916 2.5-4.577 5.737-5.095 8.906-3.073-1.32-6.241-1.67-9.793.596-3.37 2.152-4.173 5.1-4.788 8.99l-2.278-3.568-8.887 5.673 15.831 24.801 9.22-5.884-9.903-15.528c-.979-1.536-.522-3.727 1.128-4.78 2.765-1.765 4.375.243 4.841.973l9.908 15.522 9.519-6.076-9.11-14.272c-.652-1.021-2.272-4.205.49-5.968 2.285-1.459 3.962-.29 5.1 1.493l9.52 14.917 9.56-6.102-10.003-15.96c-2.519-4.02-5.791-5.554-8.87-5.645zm-44.367 28.32c-2.395-.071-4.673.73-6.39 1.912-3.916 2.5-4.576 5.739-5.094 8.908-3.073-1.32-6.241-1.672-9.793.596-3.37 2.15-4.173 5.099-4.788 8.989l-2.278-3.569-8.888 5.674 15.832 24.801 9.218-5.884-9.9-15.529c-.98-1.536-.524-3.726 1.126-4.779 2.765-1.765 4.375.242 4.841.972l9.908 15.522 9.519-6.075-9.11-14.272c-.652-1.021-2.272-4.206.49-5.969 2.285-1.459 3.962-.29 5.1 1.494l9.521 14.917 9.56-6.103-10.004-15.96c-2.52-4.02-5.79-5.554-8.87-5.645zm-41.024 25.324-9.34 5.962 7.853 12.304c2.283 3.577 3.03 6.196-.052 8.164a3.273 3.273 0 0 1-3.188.213c-1.346-.668-2.51-2.246-3.816-4.29l-7.665-12.008-9.218 5.884 9.066 14.62c1.292 2.081 2.55 3.766 3.723 4.878 3.849 3.65 9.381 2.698 12.726.313 3.374-2.406 4.388-5.628 4.478-8.988l2.262 3.543 9.024-5.759zm-35.24 8.916-12.483 7.968c-4.799 3.063-7.697 6.796-9.271 13.926-1.013 4.587-.378 10.539 2.509 15.062 3.265 5.115 7.575 8.072 12.162 9.084 7.13 1.574 12.179.05 16.977-3.014l12.483-7.968-6.167-9.662-8.884 5.67c-5.48 3.498-11.19 4.103-14.833-1.604-1.354-2.12-1.633-4.237-1.23-6.2.91-4.418 3.322-6.206 6.02-7.928l8.884-5.67z" font-family="Nimbus Sans Becker DBla" font-size="28.66" letter-spacing="-1.075" paint-order="stroke fill markers" style="line-height:.8;-inkscape-font-specification:'Nimbus Sans Becker DBla'" transform="translate(-43.249 -89.2)" word-spacing="0"/></svg>